# xmcd
#
# Track frame offsets: 
#        150
#        8240
#        23132
#        35630
#        50090
#        64982
#        82440
#        96460
#        112285
#        129118
#        147705
#
# Disc length: 2156 seconds
#
# Revision: 0
# Processed by: cddbd v1.4PL0 Copyright (c) Steve Scherf et al.
# Submitted via: ExactAudioCopy v0.95a3
#
DISCID=ab086a0b
DTITLE=The Sadies - Stores Often Told
DYEAR=2002
DGENRE=Country
TTITLE0=Lay Down Your Arms
TTITLE1=Oak Ridges
TTITLE2=The Story's Often Told
TTITLE3=A#1
TTITLE4=Within A Stone
TTITLE5=Mile Over Mecca
TTITLE6=A Steep Climb
TTITLE7=Such A Little Word
TTITLE8=Tiger Tiger
TTITLE9=Of Our Land
TTITLE10=Monkey and Cork
EXTD=
EXTT0=
EXTT1=
EXTT2=
EXTT3=
EXTT4=
EXTT5=
EXTT6=
EXTT7=
EXTT8=
EXTT9=
EXTT10=
PLAYORDER=
